<?xml version="1.0" standalone="no"?>
<!DOCTYPE svg PUBLIC "-//W3C//DTD SVG 20010904//EN"
 "http://www.w3.org/TR/2001/REC-SVG-20010904/DTD/svg10.dtd">
<svg version="1.0" xmlns="http://www.w3.org/2000/svg"
 width="512.000000pt" height="512.000000pt" viewBox="0 0 512.000000 512.000000"
 preserveAspectRatio="xMidYMid meet">
<metadata>
Created by potrace 1.14, written by Peter Selinger 2001-2017
</metadata>
<g transform="translate(0.000000,512.000000) scale(0.100000,-0.100000)"
fill="#000000" stroke="none">
<path d="M1325 5106 c-91 -28 -163 -98 -196 -189 -18 -50 -18 -130 -16 -2372
l2 -2320 22 -46 c28 -58 91 -121 151 -151 l47 -23 1195 -3 c851 -2 1210 0
1247 8 64 14 133 59 173 113 64 88 60 -84 60 2432 0 1259 -3 2304 -6 2320 -16
89 -88 179 -173 219 l-46 21 -1210 2 c-948 1 -1219 -1 -1250 -11z m2453 -179
c57 -40 62 -63 62 -286 l0 -201 -1281 0 -1280 0 3 216 3 216 44 39 43 39 1187
0 1187 0 32 -23z m60 -2367 l-3 -1705 -1275 0 -1275 1 -2 1704 -2 1705 1279 0
1280 0 -2 -1705z m-1628 -1887 c0 -5 -10 -24 -21 -43 -34 -55 -52 -129 -51
-210 1 -79 16 -135 57 -207 l24 -44 -429 3 -428 3 -27 25 c-52 49 -55 63 -55
279 l1 201 464 0 c256 0 465 -3 465 -7z m456 -17 c251 -117 160 -494 -117
-482 -137 6 -241 116 -240 254 0 31 7 74 15 94 56 133 213 194 342 134z m1174
-177 c0 -219 -5 -245 -58 -284 -26 -19 -45 -20 -455 -23 l-429 -3 22 31 c81
114 84 327 6 443 l-25 37 469 0 470 0 0 -201z"/>
<path d="M2270 4767 c-52 -27 -64 -90 -24 -131 l27 -26 289 0 289 0 24 26 c34
37 33 83 -2 117 l-28 26 -275 0 c-204 1 -281 -2 -300 -12z"/>
<path d="M1475 3978 c-33 -38 -29 -81 11 -116 l26 -22 798 2 799 3 23 22 c33
33 30 89 -6 119 l-27 24 -799 0 -798 0 -27 -32z"/>
<path d="M3373 3998 c-55 -27 -53 -117 4 -147 28 -14 214 -15 246 0 25 11 47
47 47 74 0 27 -22 63 -47 74 -30 14 -221 13 -250 -1z"/>
<path d="M2460 3573 c-117 -23 -201 -79 -290 -193 -55 -69 -137 -199 -185
-292 -16 -32 -32 -58 -35 -58 -3 0 -22 37 -43 81 -21 45 -49 92 -62 105 -48
48 -126 20 -139 -48 -6 -34 172 -399 206 -422 18 -13 57 -16 213 -16 172 0
193 2 223 20 45 28 48 90 6 128 -23 20 -35 22 -145 22 -65 0 -119 2 -119 5 0
19 111 222 161 295 105 154 180 210 280 210 114 0 162 -32 309 -210 49 -60 98
-113 108 -118 24 -13 71 -6 93 13 24 23 33 69 18 97 -20 39 -187 240 -229 276
-32 28 -117 79 -150 91 -60 22 -154 28 -220 14z"/>
<path d="M3065 2761 c-76 -76 -142 -147 -146 -158 -19 -51 26 -113 83 -113 23
0 48 18 118 86 102 98 91 101 135 -36 25 -81 31 -104 56 -228 35 -175 3 -298
-98 -381 -55 -46 -96 -53 -303 -54 -189 0 -224 -5 -246 -35 -19 -24 -17 -76 4
-101 25 -32 66 -37 269 -35 250 3 323 26 424 131 141 147 166 313 94 618 -13
55 -33 125 -44 155 -11 30 -18 57 -16 58 2 2 48 -10 101 -27 114 -37 146 -35
175 12 22 36 18 71 -9 100 -21 20 -390 147 -430 147 -23 0 -55 -26 -167 -139z"/>
<path d="M1669 2549 c-55 -20 -177 -235 -205 -360 -12 -53 -12 -150 0 -196 19
-71 41 -107 97 -163 101 -100 177 -122 425 -123 101 -1 184 -4 184 -7 0 -3
-25 -30 -55 -59 -30 -30 -59 -67 -64 -81 -19 -57 37 -120 96 -106 18 5 82 61
176 155 196 195 196 171 -4 370 -141 141 -154 151 -188 151 -26 0 -44 -7 -58
-22 -43 -47 -34 -86 38 -163 34 -36 57 -65 53 -66 -5 0 -81 0 -169 0 -197 0
-223 4 -288 48 -75 51 -98 129 -71 237 18 71 41 118 100 207 60 91 65 120 26
159 -32 31 -49 35 -93 19z"/>
<path d="M1482 1256 c-28 -31 -34 -55 -22 -91 15 -45 45 -55 161 -55 129 0
168 20 168 85 0 68 -39 86 -179 84 -97 -1 -111 -4 -128 -23z"/>
<path d="M1995 1258 c-37 -33 -38 -93 -1 -125 l27 -23 789 0 c557 0 796 3 813
11 52 24 60 87 18 130 l-29 29 -796 0 -795 0 -26 -22z"/>
</g>
</svg>
